<svg id="Capa_1" data-name="Capa 1" xmlns="http://www.w3.org/2000/svg" viewBox="0 0 481.83 481.83"><defs><style>.cls-1{fill:#7d895b;}.cls-2{fill:#fff;}</style></defs><title>touch</title><rect width="481.83" height="481.83"/><path class="cls-1" d="M388.81,432.75H335.88V363.22h66.95V417l40.63,40.06s17.17-20.89,62.09-25.18c0-16-1.15-117.6-1.15-117.6H284.66V775.23H505.55V657.35s-33.19.29-62.38-24.32c-28.61,28-40.63,38.34-40.63,38.34l.68,53.33h-68v-68l52.68.22,39.59-39.81s-56.69-65.88-.61-144.28C422.29,467.08,388.81,432.75,388.81,432.75Z" transform="translate(-273.79 -303.99)"/><path class="cls-1" d="M641.84,656.78h52.93v69.53H627.82V672.52l-40.63-40.06S570,653.35,525.1,657.64c0,16,1.14,117.59,1.14,117.59H746V314.29H525.1V432.18s33.19-.29,62.37,24.32c28.61-28,40.63-38.34,40.63-38.34l-.68-53.33h68v68l-52.68-.22-39.6,39.81s56.69,65.88.61,144.27C608.36,622.45,641.84,656.78,641.84,656.78Z" transform="translate(-273.79 -303.99)"/><circle class="cls-2" cx="241.29" cy="240.77" r="91.82"/><rect x="214.95" y="214.59" width="52.36" height="50.43"/></svg>